<svg width="136" height="24" viewBox="0 0 136 24" fill="none" xmlns="http://www.w3.org/2000/svg">
<path d="M12.0004 3L14.3504 8.76L20.5604 9.22L15.8004 13.24L17.2904 19.28L12.0004 16L6.71043 19.28L8.20043 13.24L3.44043 9.22L9.65043 8.76L12.0004 3Z" fill="#F3B64C"/>
<path d="M12.0004 3L9.65043 8.76L3.44043 9.22L8.20043 13.24L6.71043 19.28L12.0004 16M12.0004 3L14.3504 8.76L20.5604 9.22L15.8004 13.24L17.2904 19.28L12.0004 16" stroke="#F3B64C" stroke-width="2" stroke-linecap="round" stroke-linejoin="round"/>
<path d="M40.0004 3L42.3504 8.76L48.5604 9.22L43.8004 13.24L45.2904 19.28L40.0004 16L34.7104 19.28L36.2004 13.24L31.4404 9.22L37.6504 8.76L40.0004 3Z" fill="#F3B64C"/>
<path d="M40.0004 3L37.6504 8.76L31.4404 9.22L36.2004 13.24L34.7104 19.28L40.0004 16M40.0004 3L42.3504 8.76L48.5604 9.22L43.8004 13.24L45.2904 19.28L40.0004 16" stroke="#F3B64C" stroke-width="2" stroke-linecap="round" stroke-linejoin="round"/>
<path d="M68.0004 3L70.3504 8.76L76.5604 9.22L71.8004 13.24L73.2904 19.28L68.0004 16L62.7104 19.28L64.2004 13.24L59.4404 9.22L65.6504 8.76L68.0004 3Z" fill="#F3B64C"/>
<path d="M68.0004 3L65.6504 8.76L59.4404 9.22L64.2004 13.24L62.7104 19.28L68.0004 16M68.0004 3L70.3504 8.76L76.5604 9.22L71.8004 13.24L73.2904 19.28L68.0004 16" stroke="#F3B64C" stroke-width="2" stroke-linecap="round" stroke-linejoin="round"/>
<path d="M96.0004 3L98.3504 8.76L104.56 9.22L99.8004 13.24L101.29 19.28L96.0004 16L90.7104 19.28L92.2004 13.24L87.4404 9.22L93.6504 8.76L96.0004 3Z" fill="#F3B64C"/>
<path d="M96.0004 3L93.6504 8.76L87.4404 9.22L92.2004 13.24L90.7104 19.28L96.0004 16M96.0004 3L98.3504 8.76L104.56 9.22L99.8004 13.24L101.29 19.28L96.0004 16" stroke="#F3B64C" stroke-width="2" stroke-linecap="round" stroke-linejoin="round"/>
<path d="M124 3L126.35 8.76L132.56 9.22L127.8 13.24L129.29 19.28L124 16L118.71 19.28L120.2 13.24L115.44 9.22L121.65 8.76L124 3Z" fill="#F3B64C"/>
<path d="M124 3L121.65 8.76L115.44 9.22L120.2 13.24L118.71 19.28L124 16M124 3L126.35 8.76L132.56 9.22L127.8 13.24L129.29 19.28L124 16" stroke="#F3B64C" stroke-width="2" stroke-linecap="round" stroke-linejoin="round"/>
</svg>
