<svg width="95" height="34" viewBox="0 0 95 34" fill="none" xmlns="http://www.w3.org/2000/svg">
<g style="mix-blend-mode:luminosity" clip-path="url(#clip0_21423_19989)">
<path d="M10.3664 4.25H0V29.0417L10.3664 4.25Z" fill="#FA0C00"/>
<path d="M17.6602 4.25H28.0131V29.0417L17.6602 4.25Z" fill="#FA0C00"/>
<path d="M14.0139 13.3875L20.612 29.0418H16.2831L14.3111 24.0578H9.48242L14.0139 13.3875Z" fill="#FA0C00"/>
<path d="M44.9251 20.0159L46.1474 23.5209C46.188 23.6087 46.2487 23.6493 46.3568 23.6493H48.707C48.8353 23.6493 48.8555 23.5885 48.8353 23.4602L43.9796 9.97365C43.9593 9.8656 43.9391 9.84534 43.831 9.84534H40.9136C40.8325 9.84534 40.7852 9.90612 40.7852 9.99391C40.7447 10.703 40.6839 10.9191 40.5961 11.1285L36.2672 23.4399C36.247 23.5885 36.2943 23.6493 36.4158 23.6493H38.5161C38.6444 23.6493 38.7052 23.6087 38.7525 23.4804L39.9073 20.0159H44.9251ZM40.5759 17.7265C41.2107 15.8086 42.0481 13.3503 42.3858 11.9456H42.4061C42.8248 13.4179 43.8108 16.3353 44.2565 17.7265H40.5759Z" fill="#FA0C00"/>
<path d="M55.0778 23.8586C56.3407 23.8586 57.6847 23.629 59.0488 23.0415C59.1569 23.001 59.1771 22.9537 59.1771 22.8524C59.1366 22.4742 59.0894 21.9272 59.0894 21.5085V8.81211C59.0894 8.73107 59.0894 8.69055 58.9881 8.69055H56.6987C56.6109 8.69055 56.5703 8.73107 56.5703 8.83913V13.141C56.2124 13.1005 55.9625 13.0803 55.6654 13.0803C51.9713 13.0803 49.7021 15.5182 49.7021 18.564C49.7021 22.096 52.0321 23.8586 55.0778 23.8586ZM56.5703 21.5085C56.1922 21.63 55.7734 21.6773 55.348 21.6773C53.6731 21.6773 52.3022 20.7318 52.3022 18.4357C52.3022 16.4029 53.7137 15.2008 55.5843 15.2008C55.9625 15.2008 56.2935 15.2413 56.5703 15.3494V21.5085Z" fill="#FA0C00"/>
<path d="M66.4806 13.0803C63.3267 13.0803 61.375 15.498 61.375 18.483C61.375 21.1506 62.9283 23.8587 66.4333 23.8587C69.398 23.8587 71.4781 21.6774 71.4781 18.4155C71.4781 15.5386 69.7154 13.0803 66.4806 13.0803ZM66.3522 15.2009C68.1351 15.2009 68.8915 16.7339 68.8915 18.483C68.8915 20.6441 67.7772 21.7179 66.4806 21.7179C64.88 21.7179 63.9345 20.374 63.9345 18.4358C63.9345 16.4435 64.9408 15.2009 66.3522 15.2009Z" fill="#FA0C00"/>
<path d="M73.8449 8.69043C73.7571 8.69043 73.6963 8.73095 73.6963 8.839V23.2102C73.6963 23.271 73.7571 23.379 73.8449 23.3993C74.8511 23.7099 75.9046 23.8585 76.9919 23.8585C80.1052 23.8585 83.1307 21.9271 83.1307 18.0371C83.1307 15.221 81.1993 13.0801 78.1738 13.0801C77.4782 13.0801 76.8299 13.1882 76.2626 13.3773L76.2356 8.85926C76.2356 8.71069 76.195 8.69043 76.0465 8.69043H73.8449ZM80.5442 18.2937C80.5442 20.6237 78.9504 21.7177 77.2283 21.7177C76.8704 21.7177 76.553 21.6974 76.2626 21.6096V15.4776C76.5935 15.3493 76.9919 15.2412 77.7281 15.2412C79.3894 15.2412 80.5442 16.2947 80.5442 18.2937Z" fill="#FA0C00"/>
<path d="M91.6743 19.0502C92.7009 19.0502 93.545 19.0299 93.8354 18.9624C93.9435 18.9421 93.984 18.9016 94.0043 18.8138C94.065 18.5842 94.0921 18.1047 94.0921 17.5172C94.0921 15.5182 92.89 13.0802 89.7834 13.0802C86.6093 13.0802 84.8467 15.6667 84.8467 18.5842C84.8467 21.1708 86.2109 23.8586 90.0333 23.8586C91.465 23.8586 92.3902 23.629 93.1871 23.2508C93.2681 23.2103 93.3087 23.1427 93.3087 23.0212V21.2721C93.3087 21.1708 93.2479 21.1505 93.1871 21.191C92.3902 21.5287 91.5258 21.6975 90.5803 21.6975C88.4395 21.6975 87.467 20.5157 87.4062 19.0502H91.6743ZM87.4062 17.2403C87.575 16.2138 88.2234 15.0995 89.6753 15.0995C91.2759 15.0995 91.6946 16.4434 91.6946 17.0512C91.6946 17.0714 91.6946 17.1592 91.6946 17.22C91.6068 17.2403 91.3367 17.2403 90.5398 17.2403H87.4062Z" fill="#FA0C00"/>
</g>
<defs>
<clipPath id="clip0_21423_19989">
<rect width="94.2083" height="34" fill="white"/>
</clipPath>
</defs>
</svg>
