<svg width="79" height="34" viewBox="0 0 79 34" fill="none" xmlns="http://www.w3.org/2000/svg">
<g style="mix-blend-mode:luminosity" clip-path="url(#clip0_21423_20024)">
<path d="M10.8117 26.9637C9.62893 27.1714 8.4253 27.2336 7.18021 27.3995L3.38251 16.2765V27.8769C2.1997 28.0013 1.12062 28.1674 0 28.3334V7.08337H3.15438L7.47069 19.1404V7.08337H10.8117V26.9637ZM17.3486 14.8654C18.6353 14.8654 20.6068 14.8031 21.7896 14.8031V18.1233C20.3161 18.1233 18.5938 18.1233 17.3486 18.1856V23.1247C19.2994 23.0002 21.2501 22.834 23.2214 22.7717V25.9674L14.0282 26.6938V7.08337H23.2214V10.4037H17.3486V14.8654ZM35.5688 10.4038H32.124V25.6772C31.0034 25.6772 29.8828 25.6772 28.8039 25.7186V10.4038H25.3591V7.08337H35.569L35.5688 10.4038ZM40.9643 14.6372H45.509V17.9574H40.9643V25.4904H37.706V7.08337H46.9824V10.4037H40.9643V14.6372ZM52.3779 22.5851C54.2663 22.6265 56.1754 22.772 58.0224 22.8756V26.1544C55.0549 25.9675 52.0874 25.781 49.0576 25.7186V7.08337H52.3779V22.5851ZM60.8239 26.3827C61.8822 26.445 63.0029 26.5073 64.0819 26.6316V7.08337H60.8239V26.3827ZM78.6292 7.08337L74.4165 17.1896L78.6292 28.3334C77.3839 28.1674 76.1389 27.9391 74.8937 27.7315L72.5073 21.5891L70.0796 27.2336C68.8757 27.0259 67.7136 26.9637 66.5102 26.7976L70.7851 17.065L66.9251 7.08337H70.4943L72.6733 12.6657L74.9976 7.08337H78.6292V7.08337Z" fill="#D81F26"/>
</g>
<defs>
<clipPath id="clip0_21423_20024">
<rect width="78.625" height="34" fill="white"/>
</clipPath>
</defs>
</svg>
